<mxfile host="app.diagrams.net" modified="2023-05-02T04:41:33.841Z" agent="5.0 (Macintosh)" etag="5Mo-cIrHyRX4xAmphMId" version="20.1.4" type="github">
  <diagram id="u382wKbesl5rsP1lg2Kf" name="Page-1">
    <mxGraphModel dx="1426" dy="792" grid="1" gridSize="10" guides="1" tooltips="1" connect="1" arrows="1" fold="1" page="1" pageScale="1" pageWidth="850" pageHeight="1100" math="0" shadow="0">
      <root>
        <mxCell id="0" />
        <mxCell id="1" parent="0" />
        <mxCell id="9PHBoO7Fbgc54-1Qmo_K-2" value="" style="rounded=1;whiteSpace=wrap;html=1;" vertex="1" parent="1">
          <mxGeometry x="200" y="280" width="450" height="600" as="geometry" />
        </mxCell>
        <mxCell id="9PHBoO7Fbgc54-1Qmo_K-3" value="" style="rounded=1;whiteSpace=wrap;html=1;" vertex="1" parent="1">
          <mxGeometry x="325" y="440" width="200" height="230" as="geometry" />
        </mxCell>
        <mxCell id="9PHBoO7Fbgc54-1Qmo_K-4" value="" style="rounded=1;whiteSpace=wrap;html=1;" vertex="1" parent="1">
          <mxGeometry x="365" y="470" width="120" height="30" as="geometry" />
        </mxCell>
        <mxCell id="9PHBoO7Fbgc54-1Qmo_K-6" value="" style="rounded=1;whiteSpace=wrap;html=1;" vertex="1" parent="1">
          <mxGeometry x="365" y="530" width="120" height="30" as="geometry" />
        </mxCell>
        <mxCell id="9PHBoO7Fbgc54-1Qmo_K-7" value="SWAP" style="rounded=1;whiteSpace=wrap;html=1;" vertex="1" parent="1">
          <mxGeometry x="365" y="630" width="120" height="20" as="geometry" />
        </mxCell>
        <mxCell id="9PHBoO7Fbgc54-1Qmo_K-8" value="&lt;font style=&quot;font-size: 9px;&quot;&gt;Network fees: $10 usd&lt;br&gt;Router: Uniswap&lt;br&gt;&lt;/font&gt;" style="text;html=1;strokeColor=none;fillColor=none;align=left;verticalAlign=middle;whiteSpace=wrap;rounded=0;" vertex="1" parent="1">
          <mxGeometry x="365" y="570" width="120" height="50" as="geometry" />
        </mxCell>
      </root>
    </mxGraphModel>
  </diagram>
</mxfile>
